<?xml version="1.0" encoding="utf-8"?>

<!DOCTYPE svg PUBLIC "-//W3C//DTD SVG 1.1//EN" "http://www.w3.org/Graphics/SVG/1.1/DTD/svg11.dtd">
<!-- Uploaded to: SVG Repo, www.svgrepo.com, Generator: SVG Repo Mixer Tools -->
<svg version="1.1" id="_x32_" xmlns="http://www.w3.org/2000/svg" xmlns:xlink="http://www.w3.org/1999/xlink" 
	 viewBox="0 0 512 512"  xml:space="preserve">
<style type="text/css">
	.st0{fill:#000000;}
</style>
<g>
	<rect x="392.76" y="410.812" class="st0" width="11.866" height="74.947"/>
	<path class="st0" d="M511.898,241.417c1.332-37.396-10.404-70.917-33.036-94.396c-20.936-21.726-49.986-33.708-81.688-33.708
		c-1.152,0-2.304,0-3.442,0.065c-7.143-21.053-18.336-39.758-33.164-55.065C333.755,30.472,296.605,15.171,256,15.171
		c-40.599,0-77.756,15.301-104.56,43.141c-14.823,15.307-26.015,34.012-33.158,55.065c-1.152-0.065-2.304-0.065-3.449-0.065
		c-31.709,0-60.752,11.982-81.689,33.708c-22.632,23.48-34.375,57-33.042,94.396C2.587,312.029,46.575,356.872,81.855,374.6
		l-3.028,7.861c-2.058,5.39-1.333,11.439,1.993,16.227c3.209,4.651,8.592,7.433,14.285,7.433h39.389
		c5.81,0,11.193-2.84,14.344-7.433c3.332-4.788,4.056-10.838,1.999-16.227l-3.028-7.861c14.648-7.382,30.797-19.429,44.837-36.121
		c8.773,6.289,17.488,11.309,25.711,15.185l-5.318,13.011c-2.238,5.383-1.63,11.556,1.566,16.33
		c3.274,4.846,8.722,7.751,14.532,7.751H256h26.876c5.81,0,11.257-2.905,14.518-7.751c3.209-4.775,3.817-10.948,1.579-16.33
		l-5.332-13.011c8.23-3.876,16.938-8.896,25.724-15.185c14.027,16.692,30.189,28.74,44.823,36.121l-3.028,7.861
		c-2.044,5.39-1.32,11.439,2.006,16.227c3.145,4.593,8.528,7.433,14.338,7.433h39.402c5.68,0,11.063-2.782,14.272-7.433
		c3.325-4.788,4.05-10.838,1.992-16.227l-3.014-7.861C465.431,356.872,509.413,312.029,511.898,241.417z M127.598,365.82
		l8.527,22.276l-0.181,1.572c-0.362,0.479-0.841,0.725-1.45,0.725H95.106c-0.543,0-1.093-0.246-1.397-0.725l-0.182-1.572
		l8.476-22.276c-33.281-9.737-83.681-53.849-86.166-124.947c-2.484-67.895,41.692-111.282,97.967-111.826
		c-3.752,15.916-5.39,32.919-4.782,50.647c2.478,69.046,35.52,119.02,71.163,149.157C163.48,348.578,143.579,361.169,127.598,365.82
		z M322.316,316.267c-4.115,3.63-8.282,6.839-12.461,9.802c-12.824,9.136-25.595,15.431-36.904,18.698l11.49,27.891l-0.181,1.579
		c-0.297,0.486-0.841,0.783-1.384,0.783H256h-26.863c-0.544,0-1.087-0.298-1.391-0.783l-0.188-1.579l11.497-27.891
		c-11.309-3.268-24.08-9.563-36.91-18.698c-4.18-2.963-8.347-6.172-12.462-9.802c-32.796-28.137-62.745-74.792-64.932-137.117
		c-0.666-17.669,1.087-34.122,4.969-49.074c1.268-5.266,2.84-10.287,4.658-15.185C153.865,62.187,200.63,30.899,256,30.899
		c55.37,0,102.146,31.288,121.634,83.992c1.812,4.898,3.377,9.919,4.659,15.185c3.868,14.952,5.629,31.405,4.956,49.074
		C385.074,241.475,355.119,288.13,322.316,316.267z M409.996,365.82l8.476,22.276l-0.181,1.572
		c-0.298,0.479-0.841,0.725-1.384,0.725h-39.402c-0.595,0-1.087-0.246-1.449-0.725l-0.181-1.572l8.54-22.276
		c-15.981-4.652-35.895-17.242-52.588-36.969c35.636-30.137,68.672-80.11,71.156-149.157c0.608-17.728-1.035-34.731-4.788-50.647
		c56.288,0.544,100.452,43.931,97.968,111.826C493.691,311.971,443.277,356.083,409.996,365.82z"/>
	<polygon class="st0" points="249.581,397.231 249.581,496.829 256,496.829 262.418,496.829 262.418,397.231 256,397.231 	"/>
	<rect x="107.373" y="410.812" class="st0" width="11.872" height="74.947"/>
</g>
</svg>