<?xml version="1.0" encoding="utf-8"?>

<!DOCTYPE svg PUBLIC "-//W3C//DTD SVG 1.1//EN" "http://www.w3.org/Graphics/SVG/1.1/DTD/svg11.dtd">
<!-- Uploaded to: SVG Repo, www.svgrepo.com, Generator: SVG Repo Mixer Tools -->
<svg version="1.1" id="_x32_" xmlns="http://www.w3.org/2000/svg" xmlns:xlink="http://www.w3.org/1999/xlink" 
	 viewBox="0 0 512 512"  xml:space="preserve">
<style type="text/css">
	.st0{fill:#000000;}
</style>
<g>
	<rect x="247.027" y="398.668" class="st0" width="17.946" height="113.332"/>
	<path class="st0" d="M256.007,0C170.213,0,102.569,65.824,106.25,169.118c3.843,107.508,80.015,174.195,130.395,188.945
		l-14.211,26.225h67.132l-14.204-26.225c50.373-14.744,126.559-81.424,130.388-188.945C409.444,65.824,341.786,0,256.007,0z
		 M221.274,84.154c-6.121,3.573-11.69,7.928-16.598,13.018c-10.813,11.218-18.444,25.49-22.597,42.856
		c-1.767,7.416-9.209,11.994-16.625,10.227c-7.416-1.766-12-9.216-10.233-16.631c5.11-21.526,15.047-40.577,29.581-55.632
		c6.688-6.93,14.292-12.863,22.558-17.69c6.593-3.842,15.047-1.618,18.89,4.968C230.092,71.858,227.867,80.312,221.274,84.154z"/>
</g>
</svg>