<?xml version="1.0" encoding="utf-8"?><!-- Uploaded to: SVG Repo, www.svgrepo.com, Generator: SVG Repo Mixer Tools -->
<svg version="1.1" id="designs" xmlns="http://www.w3.org/2000/svg" xmlns:xlink="http://www.w3.org/1999/xlink" 
	 width="800px" height="800px" viewBox="0 0 32 32" xml:space="preserve">
<style type="text/css">
	.sketchy_een{fill:#111918;}
</style>
<path class="sketchy_een" d="M29.103,14.816c-0.083-0.87-0.235-1.719-0.545-2.539c-0.312-0.826-0.739-1.616-1.197-2.371
	c-0.445-0.731-0.923-1.446-1.456-2.118c-0.529-0.664-1.083-1.306-1.687-1.905c-0.279-0.272-0.569-0.533-0.865-0.786
	c-0.364-0.308-0.729-0.621-1.118-0.897c-0.648-0.46-1.344-0.872-2.059-1.221C19.79,2.791,19.399,2.611,19,2.456
	c-0.433-0.17-0.873-0.304-1.322-0.427C17.608,2.009,17.536,2,17.465,2c-0.361,0-0.699,0.242-0.799,0.604
	c-0.075,0.272,0.013,0.55,0.189,0.753c0.22,0.546,0.447,1.09,0.67,1.638c0.239,0.588,0.352,1.207,0.451,1.832
	c0.078,0.638,0.126,1.275,0.146,1.918c0.023,0.72,0.018,1.435-0.051,2.151c-0.068,0.415-0.161,0.82-0.292,1.222
	c-0.132,0.409-0.29,0.809-0.455,1.207c-0.183,0.406-0.378,0.8-0.596,1.192c-0.21,0.376-0.472,0.719-0.733,1.062
	c-0.364,0.465-0.745,0.913-1.12,1.367c-0.398,0.48-0.836,0.905-1.314,1.304c-0.477,0.37-0.958,0.74-1.461,1.075
	c-0.545,0.362-1.13,0.665-1.724,0.939c-0.741,0.288-1.519,0.44-2.279,0.667C7.7,21.045,7.305,21.148,6.9,21.233
	c-0.371,0.078-0.743,0.164-1.118,0.223c-0.361,0.035-0.724,0.058-1.087,0.071c-0.427,0.012-0.846-0.002-1.267,0.073
	c-0.348,0.063-0.591,0.443-0.591,0.777c0,0.096,0.022,0.19,0.056,0.28c-0.004,0.012-0.013,0.021-0.016,0.033
	c-0.038,0.142-0.038,0.287,0,0.429c0.039,0.136,0.109,0.255,0.207,0.355c0.247,0.302,0.512,0.591,0.765,0.887
	c0.251,0.296,0.508,0.583,0.788,0.852c0.595,0.577,1.205,1.156,1.871,1.65c0.32,0.237,0.658,0.449,0.998,0.658
	c0.33,0.201,0.648,0.425,0.978,0.63c0.34,0.211,0.682,0.425,1.031,0.621c0.379,0.213,0.798,0.377,1.207,0.523
	c0.36,0.128,0.727,0.241,1.095,0.35c0.451,0.136,0.909,0.241,1.377,0.292c0.804,0.089,1.624,0.071,2.428,0.021
	c0.861-0.051,1.721-0.15,2.561-0.359c0.389-0.097,0.78-0.196,1.164-0.314c0.423-0.132,0.832-0.306,1.239-0.48
	c0.713-0.306,1.401-0.692,2.071-1.081c0.735-0.429,1.373-1.027,2.013-1.583c0.3-0.263,0.605-0.527,0.879-0.818
	c0.316-0.332,0.609-0.689,0.881-1.059c0.249-0.34,0.488-0.688,0.707-1.047c0.203-0.333,0.369-0.684,0.53-1.039
	c0.354-0.791,0.67-1.603,0.938-2.424c0.269-0.828,0.409-1.689,0.498-2.553C29.186,16.407,29.178,15.612,29.103,14.816z
	 M27.421,17.581c-0.091,0.595-0.211,1.188-0.393,1.76c-0.201,0.633-0.438,1.255-0.689,1.871c-0.176,0.408-0.36,0.813-0.588,1.196
	c-0.259,0.435-0.541,0.854-0.843,1.261c-0.354,0.434-0.737,0.828-1.156,1.199c-0.427,0.377-0.853,0.756-1.296,1.115
	c-0.437,0.311-0.901,0.575-1.376,0.828c-0.409,0.221-0.827,0.434-1.255,0.619c-0.534,0.218-1.078,0.386-1.638,0.529
	c-0.538,0.14-1.072,0.264-1.62,0.345c-0.538,0.062-1.077,0.098-1.618,0.115c-0.563,0.019-1.126,0.021-1.685-0.034
	c-0.442-0.081-0.866-0.195-1.296-0.33c-0.393-0.124-0.78-0.253-1.161-0.408c-0.605-0.279-1.17-0.628-1.731-0.989
	c-0.574-0.368-1.166-0.716-1.714-1.123c-0.558-0.453-1.084-0.949-1.6-1.446c-0.314-0.301-0.604-0.626-0.886-0.958
	c0.37-0.023,0.742-0.053,1.107-0.107c0.387-0.057,0.769-0.158,1.152-0.241c0.377-0.081,0.753-0.164,1.126-0.274
	c0.413-0.121,0.826-0.241,1.247-0.34c0.377-0.089,0.751-0.206,1.112-0.344c0.407-0.154,0.8-0.352,1.182-0.557
	c0.385-0.206,0.759-0.421,1.122-0.666c0.336-0.227,0.66-0.474,0.986-0.717c0.344-0.259,0.69-0.521,1.012-0.812
	c0.326-0.292,0.632-0.599,0.919-0.933c0.251-0.291,0.496-0.587,0.741-0.881c0.298-0.357,0.579-0.731,0.856-1.106
	c0.233-0.312,0.451-0.636,0.644-0.974c0.439-0.769,0.784-1.581,1.095-2.406c0.138-0.366,0.261-0.745,0.334-1.128
	c0.091-0.457,0.138-0.919,0.172-1.383c0.03-0.415,0.026-0.832,0.022-1.249c-0.004-0.405-0.014-0.812-0.04-1.217
	c-0.055-0.852-0.186-1.708-0.362-2.543c-0.079-0.374-0.231-0.725-0.368-1.08c0.888,0.402,1.734,0.882,2.525,1.452
	c0.597,0.472,1.18,0.962,1.719,1.501c0.547,0.551,1.044,1.15,1.525,1.761c0.845,1.129,1.579,2.327,2.169,3.608
	c0.116,0.29,0.218,0.583,0.313,0.881c0.109,0.345,0.168,0.708,0.224,1.067c0.061,0.517,0.11,1.031,0.11,1.552
	C27.522,16.527,27.485,17.054,27.421,17.581z M26.157,16.533c0.016,0.443,0.024,0.877-0.014,1.318
	c-0.034,0.427-0.111,0.868-0.207,1.286c-0.093,0.397-0.219,0.783-0.367,1.162c-0.156,0.405-0.328,0.82-0.533,1.201
	c-0.18,0.334-0.381,0.654-0.589,0.972c-0.247,0.381-0.506,0.751-0.796,1.101c-0.526,0.632-1.185,1.16-1.847,1.642
	c-0.648,0.472-1.373,0.796-2.118,1.081c-0.178,0.069-0.411,0.018-0.569-0.073c-0.164-0.097-0.288-0.257-0.338-0.44
	c-0.053-0.19-0.026-0.397,0.073-0.569c0.105-0.176,0.255-0.267,0.441-0.338c0.101-0.039,0.2-0.075,0.3-0.114
	c0.516-0.228,1.009-0.498,1.468-0.827c0.551-0.444,1.07-0.916,1.518-1.464c0.498-0.693,0.923-1.45,1.267-2.232
	c0.147-0.355,0.284-0.713,0.395-1.082c0.099-0.332,0.158-0.669,0.207-1.01c0.026-0.253,0.052-0.505,0.05-0.758
	c-0.002-0.286-0.016-0.571-0.028-0.855c-0.018-0.46,0.399-0.846,0.844-0.846C25.785,15.687,26.141,16.072,26.157,16.533z"/>
</svg>